<svg width="29" height="22" viewBox="0 0 29 22" fill="none" xmlns="http://www.w3.org/2000/svg">
<path d="M14.3553 22C10.8265 22 7.31279 22 3.78403 22C1.9671 22 0.600641 20.9422 0.120129 19.1638C0.0300333 18.8265 -0.0150146 18.4585 -0.0150146 18.1059C1.34017e-06 13.3686 1.34017e-06 8.63136 1.34017e-06 3.89408C1.34017e-06 2.02369 1.0361 0.61324 2.76294 0.137979C3.10831 0.045993 3.48371 0 3.82908 0C10.8716 0 17.8991 0 24.9265 0C26.7885 0 28.155 1.04251 28.6205 2.83624C28.7106 3.17352 28.7556 3.54146 28.7556 3.89408C28.7706 8.63136 28.7706 13.3686 28.7556 18.1059C28.7556 19.9763 27.7345 21.3561 25.9927 21.8467C25.6323 21.954 25.2269 21.9847 24.8515 21.9847C21.3527 22 17.854 22 14.3553 22ZM14.3853 2.6676C11.1118 2.6676 7.83835 2.6676 4.56486 2.6676C4.29457 2.6676 4.00927 2.6676 3.73898 2.6676C3.04825 2.68293 2.68786 3.0662 2.67285 3.77143C2.67285 4.01672 2.70288 4.26202 2.67285 4.49199C2.6278 4.82927 2.77796 5.02857 3.01821 5.22787C6.03643 7.74216 9.03963 10.2564 12.0578 12.7861C13.6195 14.1045 15.2112 14.1045 16.7729 12.7861C19.6259 10.3791 22.4789 7.95679 25.362 5.58049C25.9026 5.13589 26.1579 4.69129 26.1128 3.9554C26.0377 2.98955 25.7825 2.6676 24.8515 2.6676C21.3527 2.6676 17.869 2.6676 14.3853 2.6676ZM2.68786 8.44739C2.68786 8.67735 2.68786 8.8 2.68786 8.93798C2.68786 11.9735 2.68786 15.0091 2.68786 18.0293C2.68786 18.9645 2.97317 19.2557 3.88914 19.2557C10.8866 19.2557 17.884 19.2557 24.8665 19.2557C25.8125 19.2557 26.0678 18.9798 26.0678 18.0293C26.0678 14.9784 26.0678 11.9429 26.0678 8.89199C26.0678 8.76934 26.0527 8.64669 26.0527 8.47805C25.9176 8.57003 25.8275 8.63136 25.7524 8.70801C23.3048 10.7624 20.8422 12.8167 18.4096 14.8864C15.962 16.9714 12.8537 17.0174 10.3911 14.9631C8.70927 13.5679 7.0425 12.1422 5.37572 10.7317C4.5048 9.99582 3.63387 9.25993 2.68786 8.44739Z" fill="#00B77E"/>
</svg>
