<svg width="16" height="12" viewBox="0 0 16 12" fill="none" xmlns="http://www.w3.org/2000/svg">
<g clip-path="url(#clip0_57_1926)">
<path d="M5.11516 9.15886C5.20867 9.04086 5.26478 8.95916 5.33024 8.89562C8.26653 6.03632 11.2028 3.17701 14.1391 0.317708C14.2139 0.245091 14.2981 0.172474 14.3823 0.0998565C14.5319 -0.0181466 14.7095 -0.0363009 14.8498 0.0998565C15.2332 0.47202 15.6166 0.853261 15.9813 1.24358C16.0374 1.30712 16.0281 1.46143 15.9907 1.5522C15.9533 1.65205 15.8504 1.73374 15.7756 1.81544C12.3624 5.1286 8.94917 8.44177 5.53597 11.764C5.19932 12.0908 5.04035 12.0999 4.7037 11.7731C3.21685 10.3207 1.73936 8.86839 0.252506 7.41605C-0.0467339 7.12558 -0.0467339 6.98942 0.252506 6.69895C0.533044 6.42664 0.813582 6.15432 1.09412 5.88201C1.37466 5.61877 1.52428 5.61877 1.80481 5.88201C2.81475 6.88049 3.86209 7.89714 4.90008 8.9047C4.96554 8.96824 5.0123 9.04086 5.11516 9.15886Z" fill="#00B77E"/>
</g>
<defs>
<clipPath id="clip0_57_1926">
<rect width="16" height="12" fill="white"/>
</clipPath>
</defs>
</svg>
