<svg xmlns="http://www.w3.org/2000/svg" viewBox="0 0 100 100"><defs><style>.cls-1{fill:#f4abc5;}</style></defs><g id="Layer_2" data-name="Layer 2"><g id="Layer_1-2" data-name="Layer 1"><rect class="cls-1" width="100" height="100"/><g id="kERap9"><path d="M68.13,79.64H51.73a1.21,1.21,0,0,1-1.12-.57Q40.74,65.6,30.86,52.13c-.49-.67-.49-.66.19-1.19,2.53-2,5.2-3.8,7.56-6A33.06,33.06,0,0,0,49.26,24.5c.19-1.37.25-2.77.33-4.15,0-.43.11-.63.58-.63q6.22,0,12.44,0c.56,0,.57.3.56.7a49,49,0,0,1-3.45,17.34A47.07,47.07,0,0,1,49.56,53.29c-.39.39-.29.61,0,1q9,12.29,18,24.57Z"/><path d="M28.92,49.63q0,14.58,0,29.17c0,.65-.15.86-.83.86q-6.15,0-12.3,0c-.57,0-.8-.1-.8-.74q0-29.23,0-58.48c0-.6.21-.71.76-.71q6.18,0,12.37,0c.62,0,.8.17.8.8Q28.9,35.07,28.92,49.63Z"/><path d="M77.44,80.28A7.56,7.56,0,1,1,85,72.71,7.52,7.52,0,0,1,77.44,80.28Z"/></g></g></g></svg>