<svg width="12" height="13" viewBox="0 0 12 13" fill="none" xmlns="http://www.w3.org/2000/svg">
<path d="M2.5768 4.87433C2.5768 4.35152 2.55532 3.84908 2.58395 3.34663C2.60543 2.99356 2.63406 2.6337 2.74143 2.29422C3.1351 1.05848 4.02267 0.3116 5.35401 0.067168C6.51357 -0.143315 7.54429 0.141856 8.39606 0.909101C8.99732 1.44549 9.34089 2.13126 9.38384 2.91888C9.41962 3.55711 9.39099 4.20214 9.39099 4.87433C9.6773 4.87433 9.92783 4.85396 10.1712 4.88112C10.4575 4.91507 10.7581 4.94902 11.0158 5.05766C11.6815 5.34283 11.9821 5.88601 11.9893 6.55141C12.0036 8.14022 12.0036 9.72224 11.9893 11.311C11.9821 12.2752 11.2305 12.9949 10.2141 12.9949C7.40113 13.0017 4.59529 13.0017 1.78228 12.9949C0.751566 12.9949 0 12.2752 0 11.2975C0 9.72223 0 8.14701 0.00715777 6.57178C0.00715777 5.58726 0.765881 4.88112 1.80376 4.87433C2.05428 4.86754 2.29764 4.87433 2.5768 4.87433ZM6.00537 11.7863C7.39398 11.7863 8.77542 11.7863 10.164 11.7863C10.5863 11.7863 10.7152 11.6573 10.7152 11.2567C10.7152 9.70866 10.7152 8.16059 10.7152 6.61931C10.7152 6.21871 10.5792 6.0897 10.1426 6.0897C7.3725 6.0897 4.6096 6.0897 1.83955 6.0897C1.41724 6.0897 1.27408 6.2255 1.27408 6.62609C1.27408 8.16737 1.27408 9.70866 1.27408 11.2499C1.27408 11.6573 1.41008 11.7863 1.83955 11.7863C3.22815 11.7863 4.61676 11.7863 6.00537 11.7863ZM3.82225 4.86075C5.29675 4.86075 6.71399 4.86075 8.13838 4.86075C8.13838 4.26325 8.16701 3.67254 8.12407 3.08862C8.10259 2.79666 8.00954 2.49112 7.86639 2.2399C7.40829 1.44549 6.53504 1.08563 5.59738 1.2418C4.73844 1.39118 4.0513 1.96152 3.93677 2.77629C3.82941 3.45527 3.85088 4.15462 3.82225 4.86075Z" fill="white"/>
</svg>
