<svg width="26" height="28" viewBox="0 0 26 28" fill="none" xmlns="http://www.w3.org/2000/svg">
<path d="M8.72537 11.3493C10.2068 14.2814 12.6124 16.6469 15.0995 17.9784C15.6024 17.3268 16.1052 16.6611 16.6217 16.0095C17.0838 15.4004 17.6682 14.9896 18.4293 15.0038C18.8098 15.0038 19.2312 15.0605 19.5845 15.2163C21.229 15.9245 22.8599 16.6752 24.4908 17.4401C25.7684 18.035 26.2169 19.0265 25.9043 20.443C25.5509 21.9869 25.2112 23.5309 24.8578 25.0748C24.5452 26.463 23.689 27.1287 22.3163 27.0862C19.4486 27.0154 16.6896 26.4771 14.0394 25.3156C11.6066 24.2533 9.37773 22.8368 7.42064 20.9813C4.186 17.9217 2.06582 14.1539 0.829046 9.83371C0.244636 7.80817 0.0135909 5.69765 0 3.57296C0 2.41146 0.638773 1.53325 1.71246 1.24996C3.37055 0.825023 5.01505 0.38592 6.68673 0.0601342C7.92351 -0.180664 8.72537 0.300932 9.24182 1.51909C9.98933 3.28966 10.7096 5.06024 11.4164 6.84498C11.8513 7.94982 11.5659 8.98384 10.6689 9.74872C10.0301 10.2728 9.39132 10.8111 8.72537 11.3493ZM7.06728 2.49645C5.55869 2.86473 4.07728 3.21884 2.59587 3.58712C2.51432 3.60129 2.43277 3.78543 2.43277 3.89874C2.45996 4.59281 2.48714 5.28687 2.55509 5.98094C2.82691 8.91301 3.72391 11.6326 5.13737 14.1539C6.84982 17.2135 9.14669 19.6781 12.0551 21.5195C15.1811 23.5026 18.5788 24.5224 22.2483 24.5791C22.4522 24.5791 22.5473 24.5366 22.5881 24.3099C22.9007 22.8651 23.2133 21.4204 23.5395 19.9756C23.5802 19.7773 23.5395 19.7064 23.3764 19.6356C21.8406 18.9699 20.3048 18.29 18.7691 17.6101C18.5924 17.5251 18.4972 17.5393 18.3749 17.7092C17.9944 18.205 17.6138 18.7008 17.2197 19.1965C16.7304 19.8339 16.2276 20.4713 15.7655 21.0804C11.0358 19.0407 7.71964 15.5845 5.77614 10.6694C6.82264 9.77705 7.89632 8.87052 8.97001 7.97815C9.16028 7.82234 9.16028 7.69486 9.07873 7.48239C8.64382 6.44837 8.22251 5.41436 7.80119 4.38034C7.57014 3.74293 7.31191 3.13385 7.06728 2.49645Z" fill="#2A364F"/>
</svg>
