<svg xmlns="http://www.w3.org/2000/svg" viewBox="0 0 57.53 100"><defs><style>.cls-1{fill:#2a364f;}</style></defs><g id="Layer_2" data-name="Layer 2"><g id="Layer_1-2" data-name="Layer 1"><g id="tEYAXC.tif"><path class="cls-1" d="M42.45,50a17.62,17.62,0,0,1-1.84-1.36L2,10.11c-.36-.36-.73-.7-1-1.08C-.28,7.61-.34,6.85.91,5.51,2.45,3.86,4.09,2.29,5.71.72A2.24,2.24,0,0,1,8.85.57,11.73,11.73,0,0,1,10.2,1.76Q33.08,24.67,55.94,47.59c2.11,2.11,2.11,2.71,0,4.8Q33.1,75.31,10.22,98.22a12.76,12.76,0,0,1-1.35,1.19,2.22,2.22,0,0,1-3.14-.12c-1.66-1.6-3.3-3.23-4.93-4.87a2.1,2.1,0,0,1-.06-3.2c.4-.45.82-.88,1.25-1.31l38.6-38.49A22.38,22.38,0,0,1,42.45,50Z"/></g></g></g></svg>