<svg xmlns="http://www.w3.org/2000/svg" viewBox="0 0 100 100"><defs><style>.cls-1{fill:#b9ded5;}.cls-2{fill:#010101;}</style></defs><g id="Layer_2" data-name="Layer 2"><g id="Layer_1-2" data-name="Layer 1"><rect class="cls-1" width="100" height="100"/><path class="cls-2" d="M80.46,31l-9.84-5.83-9.84-5.83a10.1,10.1,0,0,0-15,8.75v1.45a2,2,0,0,0,1.09,1.83L51.66,34a2,2,0,0,0,2.92-1.82V29.22A2,2,0,0,1,57.5,27.4l9.11,5.1L75.36,38a1.78,1.78,0,0,1,0,3.28l-9.11,5.1-9.12,5.84a2,2,0,0,1-2.92-1.83V48.91a10.09,10.09,0,0,0-14.94-8.75L29.42,46l-9.84,5.83a9.92,9.92,0,0,0,0,17.14l9.84,5.83,9.85,5.83a10.09,10.09,0,0,0,14.94-8.75V70.42a2,2,0,0,0-1.09-1.83L48.38,66a2,2,0,0,0-2.91,1.82v2.92a2,2,0,0,1-2.92,1.82l-9.12-5.1L24.32,62a1.78,1.78,0,0,1,0-3.28l9.11-5.1,9.12-5.11a2,2,0,0,1,2.92,1.82v1.46a10.09,10.09,0,0,0,14.94,8.75l9.85-5.83,9.84-5.83C87,44.53,87,35.05,80.46,31Z"/></g></g></svg>