<svg xmlns="http://www.w3.org/2000/svg" viewBox="0 0 100 79.95"><defs><style>.cls-1{fill:#2a364f;}</style></defs><g id="Layer_2" data-name="Layer 2"><g id="Layer_1-2" data-name="Layer 1"><g id="vnM4aA.tif"><path class="cls-1" d="M10,45h7.41v7c1.13-.45,2.1-.89,3.1-1.22A14.68,14.68,0,0,1,37.15,56.4a2.18,2.18,0,0,0,2.08,1.13c5.66-.06,11.33,0,17,0h1.3V9.39c0-1.67-.25-1.93-1.92-1.93H19.34c-1.61,0-1.88.28-1.88,1.87V15H38c1.74,0,2,.25,2,2,0,3,0,3-3,3H2c-1.83,0-2-.18-2-2C0,15,0,15,2.94,15H10c0-2.07,0-4,0-6A8.55,8.55,0,0,1,15.06.92a9.68,9.68,0,0,1,4-.87Q37.52,0,56,0a8.78,8.78,0,0,1,9,9c0,1.94,0,3.88,0,6,1.38,0,2.69.07,4,0A13,13,0,0,1,79.8,19.46c3.63,3.87,7.43,7.59,11.26,11.27A12.35,12.35,0,0,1,95,40.32c-.07,5.31,0,10.62,0,15.93V57.5c.88,0,1.66,0,2.45,0A2.44,2.44,0,0,1,100,60.07c0,.8,0,1.6,0,2.4A2.39,2.39,0,0,1,97.37,65H90A15,15,0,0,1,74.6,80,15.13,15.13,0,0,1,59.93,65H40.18a47.58,47.58,0,0,1-1.11,5.08,15,15,0,0,1-29-4C10,65.53,10,65,10,64.41Zm55-2.55V53.64c8.31-5.59,15.81-5,22.41,2.77V42.49ZM32.51,65A7.53,7.53,0,1,0,25,72.49,7.5,7.5,0,0,0,32.51,65Zm50,0A7.52,7.52,0,1,0,75,72.49,7.48,7.48,0,0,0,82.52,65ZM65,34.92H84.49l.14-.23c-.29-.24-.62-.45-.88-.71-3.1-3.08-6.26-6.11-9.25-9.29A6.2,6.2,0,0,0,69,22.43a37.91,37.91,0,0,1-4,0Z"/><path class="cls-1" d="M25,30H6.78C5.29,30,5,29.68,5,28.21,5,25,5,25,8.16,25H42.83c1.94,0,2.14.2,2.14,2.13C45,30,45,30,42.18,30Z"/><path class="cls-1" d="M19.94,40H1.82C.26,40,0,39.71,0,38.15,0,35,0,35,3.12,35H37.89c1.86,0,2.08.22,2.08,2.09C40,40,40,40,37.11,40Z"/></g></g></g></svg>